<svg width="2785" height="557" viewBox="0 0 2785 557" fill="none" xmlns="http://www.w3.org/2000/svg">
<path d="M1848.75 448.436C1831.95 448.436 1816.91 444.595 1803.66 436.913C1790.41 429.232 1779.99 418.429 1772.41 404.506C1765.07 390.343 1761.41 374.019 1761.41 355.535C1761.41 337.051 1765.07 320.847 1772.41 306.924C1779.99 292.761 1790.41 281.839 1803.66 274.157C1816.91 266.475 1831.95 262.634 1848.75 262.634C1862.01 262.634 1874.08 264.915 1884.97 269.476C1896.09 274.037 1905.21 280.398 1912.31 288.56V192.418H1945.33V444.475H1916.21L1915.86 418.189C1908.76 427.551 1899.41 434.993 1887.81 440.514C1876.21 445.795 1863.19 448.436 1848.75 448.436ZM1794.43 355.535C1794.43 367.538 1796.91 378.22 1801.88 387.582C1806.85 396.944 1813.84 404.266 1822.83 409.547C1831.83 414.828 1842.01 417.469 1853.37 417.469C1870.65 417.469 1884.73 411.707 1895.62 400.185C1906.74 388.662 1912.31 373.779 1912.31 355.535C1912.31 337.291 1906.74 322.407 1895.62 310.885C1884.73 299.362 1870.65 293.601 1853.37 293.601C1842.01 293.601 1831.83 296.242 1822.83 301.523C1813.84 306.804 1806.85 314.126 1801.88 323.488C1796.91 332.85 1794.43 343.532 1794.43 355.535Z" fill="#1A3D89"/>
<path d="M1996.77 266.595H2029.79V444.475H1996.77V266.595ZM1991.09 214.023C1991.09 207.542 1993.22 202.261 1997.48 198.179C2001.74 193.858 2007.07 191.698 2013.46 191.698C2020.08 191.698 2025.41 193.858 2029.44 198.179C2033.7 202.261 2035.83 207.542 2035.83 214.023C2035.83 220.265 2033.7 225.546 2029.44 229.867C2025.41 233.948 2020.08 235.988 2013.46 235.988C2007.07 235.988 2001.74 233.948 1997.48 229.867C1993.22 225.546 1991.09 220.265 1991.09 214.023Z" fill="#1A3D89"/>
<path d="M2162.69 551.779C2144.23 551.779 2128.01 548.538 2114.05 542.057C2100.08 535.575 2089.43 526.453 2082.09 514.691C2074.75 502.928 2071.32 489.485 2071.8 474.361H2104.46C2103.99 488.285 2109.08 499.447 2119.73 507.849C2130.62 516.491 2144.94 520.812 2162.69 520.812C2180.44 520.812 2194.65 517.091 2205.3 509.649C2216.19 502.208 2221.63 492.246 2221.63 479.763C2221.63 467.76 2216.42 458.158 2206.01 450.956C2195.6 443.755 2181.39 440.154 2163.4 440.154C2144.47 440.154 2127.9 436.553 2113.69 429.351C2099.49 422.15 2088.48 411.948 2080.67 398.745C2073.1 385.302 2069.31 369.698 2069.31 351.934C2069.31 335.131 2073.33 320.007 2081.38 306.564C2089.43 293.121 2100.44 282.559 2114.4 274.877C2128.61 267.195 2144.58 263.354 2162.34 263.354C2182.46 263.354 2199.02 267.555 2212.04 275.957L2234.77 248.231L2258.56 266.955L2234.41 295.761C2242.22 305.123 2247.79 314.126 2251.1 322.767C2254.41 331.409 2256.07 341.132 2256.07 351.934C2256.07 368.498 2251.93 382.901 2243.64 395.144C2235.36 407.386 2223.52 416.629 2208.14 422.87C2223.05 427.911 2234.53 435.353 2242.58 445.195C2250.63 455.037 2254.65 466.56 2254.65 479.763C2254.65 494.166 2250.86 506.769 2243.29 517.571C2235.72 528.614 2224.94 537.016 2210.98 542.777C2197.25 548.778 2181.15 551.779 2162.69 551.779ZM2102.33 351.934C2102.33 369.218 2107.9 383.141 2119.02 393.703C2130.14 404.266 2144.7 409.547 2162.69 409.547C2180.44 409.547 2194.89 404.266 2206.01 393.703C2217.37 382.901 2223.05 368.978 2223.05 351.934C2223.05 334.65 2217.49 320.727 2206.36 310.165C2195.47 299.602 2180.92 294.321 2162.69 294.321C2144.7 294.321 2130.14 299.722 2119.02 310.525C2107.9 321.087 2102.33 334.89 2102.33 351.934Z" fill="#1A3D89"/>
<path d="M2297.74 266.595H2330.76V444.475H2297.74V266.595ZM2292.05 214.023C2292.05 207.542 2294.19 202.261 2298.45 198.179C2302.71 193.858 2308.03 191.698 2314.42 191.698C2321.05 191.698 2326.38 193.858 2330.41 198.179C2334.67 202.261 2336.8 207.542 2336.8 214.023C2336.8 220.265 2334.67 225.546 2330.41 229.867C2326.38 233.948 2321.05 235.988 2314.42 235.988C2308.03 235.988 2302.71 233.948 2298.45 229.867C2294.19 225.546 2292.05 220.265 2292.05 214.023Z" fill="#1A3D89"/>
<path d="M2457.27 446.995C2439.04 446.995 2425.2 441.834 2415.73 431.512C2406.49 420.95 2401.88 405.586 2401.88 385.422V295.761H2367.44V266.595H2401.88V218.704L2434.54 215.103V266.595H2487.8V295.761H2434.54V385.422C2434.54 395.744 2436.68 403.546 2440.94 408.827C2445.2 414.108 2451.94 416.749 2461.17 416.749C2468.28 416.749 2476.2 414.828 2484.96 410.987L2494.55 438.713C2482.24 444.235 2469.81 446.995 2457.27 446.995Z" fill="#1A3D89"/>
<path d="M2601.18 448.436C2584.14 448.436 2568.99 444.475 2555.73 436.553C2542.48 428.631 2532.06 417.709 2524.49 403.786C2517.15 389.623 2513.48 373.539 2513.48 355.535C2513.48 337.531 2517.15 321.567 2524.49 307.644C2532.06 293.481 2542.48 282.438 2555.73 274.517C2568.99 266.595 2584.14 262.634 2601.18 262.634C2615.39 262.634 2628.29 265.395 2639.88 270.916C2651.48 276.197 2660.83 283.519 2667.93 292.881L2668.28 266.595H2697.41V444.475H2668.28L2667.93 418.189C2660.83 427.551 2651.48 434.993 2639.88 440.514C2628.29 445.795 2615.39 448.436 2601.18 448.436ZM2546.5 355.535C2546.5 367.538 2548.99 378.22 2553.96 387.582C2558.93 396.944 2565.91 404.266 2574.9 409.547C2583.9 414.828 2594.08 417.469 2605.44 417.469C2622.72 417.469 2636.81 411.707 2647.7 400.185C2658.82 388.662 2664.38 373.779 2664.38 355.535C2664.38 337.291 2658.82 322.407 2647.7 310.885C2636.81 299.362 2622.72 293.601 2605.44 293.601C2594.08 293.601 2583.9 296.242 2574.9 301.523C2565.91 306.804 2558.93 314.126 2553.96 323.488C2548.99 332.85 2546.5 343.532 2546.5 355.535Z" fill="#1A3D89"/>
<path d="M2748.84 192.418H2781.87V444.475H2748.84V192.418Z" fill="#1A3D89"/>
<path fill-rule="evenodd" clip-rule="evenodd" d="M388.347 199.732C388.347 216.216 386.405 232.234 382.745 247.556H299.733C306.751 232.208 310.677 215.04 310.677 196.919C310.677 131.666 259.758 78.7677 196.947 78.7677C134.136 78.7677 83.2171 131.666 83.2171 196.919C83.2171 215.04 87.1439 232.208 94.1618 247.556H5.60135C1.94123 232.234 0 216.216 0 199.732C0 89.4232 86.9342 0 194.173 0C301.412 0 388.347 89.4232 388.347 199.732Z" fill="url(#paint0_linear_885_186)"/>
<path d="M255.199 196.919C255.199 227.992 230.361 253.182 199.721 253.182C169.082 253.182 144.243 227.992 144.243 196.919C144.243 165.846 169.082 140.656 199.721 140.656C230.361 140.656 255.199 165.846 255.199 196.919Z" fill="#1A3D89"/>
<path d="M202.495 275.687L296.184 440.255H108.807L202.495 275.687Z" fill="#1A3D89"/>
<path d="M603.202 232.162C592.789 232.162 584.268 229.041 577.638 222.8C571.008 216.318 567.696 208.156 567.696 198.314C567.696 188.472 571.008 180.43 577.638 174.189C584.268 167.708 592.789 164.467 603.202 164.467C613.615 164.467 622.137 167.708 628.767 174.189C635.396 180.43 638.708 188.472 638.708 198.314C638.708 208.156 635.396 216.318 628.767 222.8C622.137 229.041 613.615 232.162 603.202 232.162ZM634.803 438.848H571.957V248.006H634.803V438.848Z" fill="#1A3D89"/>
<path d="M797.315 244.405C820.987 244.405 838.74 251.726 850.574 266.37C862.646 281.013 868.682 301.178 868.682 326.863V438.848H805.481V334.065C805.481 323.503 802.996 315.461 798.025 309.939C793.054 304.178 785.953 301.298 776.721 301.298C766.308 301.298 758.025 304.298 751.867 310.3C745.715 316.301 742.636 324.583 742.636 335.145V438.848H679.79V248.006H737.665L739.795 269.61C746.663 261.448 755.063 255.207 765.004 250.886C774.946 246.565 785.72 244.405 797.315 244.405Z" fill="#1A3D89"/>
<path d="M1042.44 186.792H1105.28V438.849H1052.38L1049.89 421.565C1033.32 435.728 1013.79 442.809 991.31 442.809C973.085 442.809 956.985 438.489 943.022 429.847C929.058 420.964 918.167 408.962 910.356 393.838C902.783 378.715 898.994 361.911 898.994 343.427C898.994 324.463 902.9 307.419 910.711 292.296C918.761 277.172 929.768 265.409 943.732 257.008C957.695 248.366 973.557 244.045 991.31 244.045C1010.01 244.045 1027.05 249.206 1042.44 259.528V186.792ZM1002.32 385.197C1014.15 385.197 1023.86 381.355 1031.43 373.674C1039.24 365.752 1043.15 355.67 1043.15 343.427C1043.15 331.184 1039.24 321.222 1031.43 313.54C1023.86 305.619 1014.15 301.658 1002.32 301.658C990.245 301.658 980.303 305.619 972.492 313.54C964.919 321.222 961.13 331.184 961.13 343.427C961.13 355.67 964.919 365.752 972.492 373.674C980.303 381.355 990.245 385.197 1002.32 385.197Z" fill="#1A3D89"/>
<path d="M1292.68 248.006H1345.59V438.848H1292.68L1289.84 421.925C1273.51 435.848 1254.22 442.809 1231.97 442.809C1213.74 442.809 1197.53 438.488 1183.33 429.846C1169.12 421.204 1158.12 409.322 1150.3 394.198C1142.49 379.075 1138.59 362.151 1138.59 343.427C1138.59 323.983 1142.62 306.819 1150.66 291.935C1158.71 276.812 1169.83 265.049 1184.04 256.648C1198.24 248.246 1214.22 244.045 1231.97 244.045C1243.1 244.045 1253.63 245.965 1263.57 249.806C1273.51 253.407 1282.39 258.568 1290.2 265.289L1292.68 248.006ZM1242.27 385.196C1254.1 385.196 1263.81 381.355 1271.38 373.674C1279.19 365.752 1283.1 355.67 1283.1 343.427C1283.1 331.184 1279.19 321.222 1271.38 313.54C1263.81 305.619 1254.1 301.658 1242.27 301.658C1230.43 301.658 1220.61 305.619 1212.8 313.54C1205.22 321.222 1201.43 331.184 1201.43 343.427C1201.43 355.67 1205.22 365.752 1212.8 373.674C1220.61 381.355 1230.43 385.196 1242.27 385.196Z" fill="#1A3D89"/>
<path d="M1453.8 438.849H1390.6V186.792H1453.8V438.849Z" fill="#1A3D89"/>
<path d="M1589.68 443.17C1570.04 443.17 1552.28 438.968 1536.42 430.567C1520.8 421.925 1508.49 410.042 1499.5 394.919C1490.74 379.555 1486.36 362.392 1486.36 343.427C1486.36 324.223 1490.74 307.059 1499.5 291.936C1508.49 276.812 1520.8 265.049 1536.42 256.648C1552.04 248.006 1569.8 243.685 1589.68 243.685C1609.56 243.685 1627.32 248.006 1642.94 256.648C1658.56 265.049 1670.76 276.812 1679.51 291.936C1688.51 307.059 1693 324.223 1693 343.427C1693 362.392 1688.51 379.555 1679.51 394.919C1670.76 410.042 1658.45 421.925 1642.58 430.567C1626.96 438.968 1609.33 443.17 1589.68 443.17ZM1589.68 385.197C1601.52 385.197 1611.22 381.356 1618.8 373.674C1626.37 365.752 1630.16 355.67 1630.16 343.427C1630.16 331.184 1626.37 321.222 1618.8 313.54C1611.22 305.619 1601.52 301.658 1589.68 301.658C1578.09 301.658 1568.38 305.619 1560.57 313.54C1552.99 321.222 1549.2 331.184 1549.2 343.427C1549.2 355.67 1552.99 365.752 1560.57 373.674C1568.38 381.356 1578.09 385.197 1589.68 385.197Z" fill="#1A3D89"/>
<defs>
<linearGradient id="paint0_linear_885_186" x1="1.24265e-05" y1="237.418" x2="388.347" y2="237.418" gradientUnits="userSpaceOnUse">
<stop stop-color="#1A5FED"/>
<stop offset="0.5" stop-color="#13B1FC"/>
<stop offset="1" stop-color="#1FF084"/>
</linearGradient>
</defs>
</svg>
